<svg version="1.1" id="Layer_1" xmlns:x="ns_extend;" xmlns:i="ns_ai;" xmlns:graph="ns_graphs;" xmlns="http://www.w3.org/2000/svg" xmlns:xlink="http://www.w3.org/1999/xlink" x="0px" y="0px" viewBox="0 0 239 240" style="enable-background:new 0 0 239 240;" xml:space="preserve">
 <style type="text/css">
  .st0{fill:url(#Shape_1_);}
 </style>
 <metadata>
  <sfw xmlns="ns_sfw;">
   <slices>
   </slices>
   <sliceSourceBounds bottomLeftOrigin="true" height="240" width="239" x="0" y="0">
   </sliceSourceBounds>
  </sfw>
 </metadata>
 <g id="Layer_2_1_">
  <g id="Layer_1-2">
   <g id="eightfold-logo-_-Varela-Round-_-RGB">
    <g id="eightfold-logo-_-mark">
     <linearGradient id="Shape_1_" gradientUnits="userSpaceOnUse" x1="850.7975" y1="-198.3916" x2="851.7976" y2="-198.3916" gradientTransform="matrix(239 0 0 240 -203342.8438 47733.9922)">
      <stop offset="0" style="stop-color:#3186C8">
      </stop>
      <stop offset="0.18" style="stop-color:#269FCA">
      </stop>
      <stop offset="0.38" style="stop-color:#1DB4CC">
      </stop>
      <stop offset="0.5" style="stop-color:#1ABBCD">
      </stop>
      <stop offset="1" style="stop-color:#6FC6AA">
      </stop>
     </linearGradient>
     <path id="Shape" class="st0" d="M157.6,133.4h-24.7v39.9c0.1,36.1-28.6,65.7-64.7,66.7c-7.4,0-13.4-6.1-13.4-13.5
					c0-7.2,5.7-13.1,12.9-13.4h0.8c21.1-1.2,37.5-18.7,37.5-39.8v-39.9h-9.9c-7.4-0.2-13.3-6.4-13.1-13.8
					c0.2-7.1,5.9-12.9,13.1-13.1h9.9V66.7C106.1,30.5,134.9,0.9,171.1,0c7.4,0.3,13.2,6.5,12.9,14c-0.3,7.3-6.3,13-13.5,12.9
					c-21.1,1.2-37.6,18.7-37.6,39.8v39.9h24.6c7.4,0,13.4,6,13.4,13.5C171,127.5,165,133.5,157.6,133.4L157.6,133.4z M51,226.6
					c0-5.6,2.7-10.9,7.2-14.2c-21.5-4.7-35.2-26-30.5-47.5c4-18.2,20.1-31.3,38.7-31.4h19c-7.4-6.4-8.3-17.6-1.9-25
					c0.6-0.7,1.2-1.3,1.9-1.9h-19C29.6,106.7-0.2,136.7,0,173.6c0.2,32.7,24,60.5,56.3,65.6C52.9,235.9,51,231.3,51,226.6z
					 M182.8,0.8c7,6.9,7.1,18.1,0.2,25.1c-0.6,0.6-1.3,1.2-2,1.8c21.6,4.6,35.4,25.7,30.8,47.3c-3.9,18.5-20.2,31.7-39.1,31.7h-4.3
					c7.4,6.4,8.2,17.7,1.8,25.1c-0.6,0.7-1.2,1.3-1.8,1.8h4.3c36.9-0.2,66.6-30.2,66.4-67.1c0-8.8-1.8-17.5-5.2-25.6
					C224.9,19.5,205.6,4.3,182.8,0.8z">
     </path>
    </g>
   </g>
  </g>
 </g>
</svg>