<?xml version="1.0" encoding="UTF-8"?>
<svg version="1.1" xmlns="http://www.w3.org/2000/svg" width="800" height="803">
<path d="M0 0 C1.30775391 -0.03988037 2.61550781 -0.07976074 3.96289062 -0.12084961 C16.56943712 -0.08311988 27.14054938 4.65300564 36.28515625 13.45703125 C45.4610282 24.16525557 49.10476523 35.89438651 48.59375 49.78515625 C47.57809194 61.49984859 42.1123688 72.45701107 33.5625 80.5625 C23.56365838 88.6392342 12.39435716 91.65209532 -0.125 92.625 C-36.63453464 95.9440486 -68.37703938 112.24013564 -92.53515625 139.98046875 C-103.10356201 153.19563575 -110.53545334 167.79598068 -116.0625 183.75 C-116.40812988 184.7251355 -116.40812988 184.7251355 -116.76074219 185.7199707 C-122.68542066 203.80502999 -122.22679498 222.37791354 -122.25611091 241.15727353 C-122.26559549 245.23185428 -122.29180555 249.30632972 -122.31611633 253.38084412 C-122.35951114 261.0690632 -122.38822296 268.75726154 -122.41143972 276.44556516 C-122.4386377 285.21006219 -122.48253914 293.97445185 -122.52772844 302.73887169 C-122.62018694 320.74252414 -122.69204368 338.74620504 -122.75 356.75 C-121.66386917 356.74111755 -120.57773834 356.73223511 -119.45869446 356.7230835 C-109.17621805 356.64166791 -98.89380784 356.5818772 -88.61108112 356.54275131 C-83.32578817 356.52195942 -78.04075737 356.49379668 -72.75561523 356.44824219 C-67.64625187 356.40448307 -62.5371392 356.38079989 -57.42760277 356.37049103 C-55.48733772 356.36315327 -53.54708493 356.34882574 -51.60692787 356.32707977 C-34.67905915 356.1450529 -21.57835645 357.85144875 -8.56640625 369.74609375 C1.06911287 379.67304634 4.54269224 391.29938437 4.56689453 404.75585938 C4.45881436 411.41146297 3.30447786 416.78377688 0.25 422.75 C-0.17410156 423.60980469 -0.59820313 424.46960938 -1.03515625 425.35546875 C-6.98466756 436.30986144 -16.18054988 442.83941298 -27.83790588 446.79879761 C-32.19860327 448.01881045 -36.3959345 448.01625601 -40.89819336 447.97705078 C-42.23108902 447.97748886 -42.23108902 447.97748886 -43.59091187 447.97793579 C-46.50732428 447.97655033 -49.42347635 447.96102617 -52.33984375 447.9453125 C-54.37008016 447.94157958 -56.40031839 447.93873393 -58.43055725 447.93673706 C-63.7586876 447.92912256 -69.08670788 447.90949286 -74.41479492 447.8873291 C-79.85789501 447.86682358 -85.30101299 447.85772529 -90.74414062 447.84765625 C-101.41280861 447.82624488 -112.08139513 447.79213535 -122.75 447.75 C-122.74723462 448.80544714 -122.74723462 448.80544714 -122.74441338 449.88221645 C-122.69995106 467.12381662 -122.66700727 484.36540194 -122.64637566 501.60704708 C-122.63612931 509.94549068 -122.62219866 518.28389567 -122.59912109 526.62231445 C-122.57898101 533.90292359 -122.56623554 541.18350472 -122.56182301 548.46414095 C-122.55924992 552.30750381 -122.55334696 556.15078665 -122.53853989 559.99412346 C-122.37085322 605.30692896 -122.37085322 605.30692896 -126.8125 626.125 C-127.02310059 627.13353027 -127.23370117 628.14206055 -127.45068359 629.18115234 C-134.64780157 661.78104161 -148.93278052 692.62495421 -169.75 718.75 C-170.43191406 719.62398437 -171.11382812 720.49796875 -171.81640625 721.3984375 C-181.35688752 733.38114141 -191.62798552 744.36579562 -203.75 753.75 C-205.50140586 755.22750179 -207.25137622 756.70670667 -209 758.1875 C-236.79967005 780.75520967 -270.90680011 794.58447992 -305.75 801.75 C-307.08200439 802.02928345 -307.08200439 802.02928345 -308.44091797 802.31420898 C-316.5660989 803.85408983 -324.59264227 804.22085861 -332.83984375 804.28540039 C-334.35997791 804.30342762 -335.88000858 804.33754268 -337.39941406 804.38793945 C-351.83221289 804.8656097 -361.74628563 801.44555296 -372.75 791.75 C-381.52563024 781.56179346 -386.17528427 769.45071062 -386.02734375 756.0703125 C-384.99591269 743.72219418 -379.20009105 732.11392426 -370.20703125 723.63671875 C-360.69713675 716.33420835 -350.44769459 713.37989473 -338.65234375 712.41015625 C-305.42572241 709.56572905 -276.53418527 697.26991654 -252.75 673.75 C-251.81027344 672.90115234 -251.81027344 672.90115234 -250.8515625 672.03515625 C-236.6955899 658.97577308 -227.54650084 640.81347668 -221.375 622.875 C-221.05313721 621.955979 -220.73127441 621.03695801 -220.3996582 620.09008789 C-214.0893163 600.72847023 -214.27609875 580.86968329 -214.24388909 560.74572587 C-214.2343841 556.76057608 -214.20817308 552.77553321 -214.18388367 548.79045105 C-214.1405434 541.27583722 -214.11179858 533.76124451 -214.08856028 526.24654454 C-214.06133239 517.67788501 -214.01743329 509.1093348 -213.97227156 500.54075396 C-213.87989153 482.94389264 -213.80799961 465.34700759 -213.75 447.75 C-214.89887695 447.77094727 -216.04775391 447.79189453 -217.23144531 447.81347656 C-221.54772169 447.88659899 -225.86394487 447.93205886 -230.18066406 447.96972656 C-232.03883105 447.98967917 -233.89693659 448.01685134 -235.75488281 448.05175781 C-252.97711341 448.36691166 -265.82841739 446.0693815 -278.9375 434.125 C-288.50087718 424.1607627 -291.27489315 411.97766328 -291.0625 398.63671875 C-289.97228414 385.07715895 -283.78261946 375.02515312 -274.1796875 365.76171875 C-265.70671015 358.74631146 -256.04039794 356.48361488 -245.31640625 356.3359375 C-243.9995005 356.30688828 -243.9995005 356.30688828 -242.6559906 356.2772522 C-239.8749233 356.21787262 -237.09381367 356.17123883 -234.3125 356.125 C-232.41730049 356.08678184 -230.52211764 356.04772792 -228.62695312 356.0078125 C-224.00143871 355.91220571 -219.37584308 355.82802245 -214.75 355.75 C-214.74668985 355.02206647 -214.74337971 354.29413294 -214.73996925 353.54414082 C-214.65833586 335.73639445 -214.56611613 317.92873074 -214.46247292 300.12109852 C-214.41259815 291.50905398 -214.36615507 282.89701778 -214.328125 274.28491211 C-214.29492404 266.7684378 -214.25494388 259.25203344 -214.20720994 251.73563689 C-214.18222041 247.76500846 -214.16036224 243.79442475 -214.14665604 239.82374001 C-214.00197445 199.52062113 -210.29147141 158.35686135 -189.78759766 122.57958984 C-188.61243315 120.50742917 -187.4992898 118.40718338 -186.38671875 116.30078125 C-176.33509991 97.45991328 -163.365872 81.25894317 -148.75 65.75 C-148.06035156 65.0178125 -147.37070312 64.285625 -146.66015625 63.53125 C-142.23226443 58.96753328 -137.47205849 54.92707539 -132.5078125 50.95703125 C-130.81643149 49.60344729 -129.14040028 48.23004729 -127.4921875 46.82421875 C-115.29639471 36.56190531 -101.18243015 28.39854869 -86.76123047 21.68994141 C-84.69589576 20.72471458 -82.64755933 19.72798966 -80.59765625 18.73046875 C-68.41080595 12.92582167 -55.82213971 9.04230251 -42.75 5.75 C-41.7290625 5.49025391 -40.708125 5.23050781 -39.65625 4.96289062 C-26.48565774 1.72844594 -13.52323228 0.23075231 0 0 Z " fill="#8E8E8E" transform="translate(568.75,-0.75)"/>
<path d="M0 0 C1.75690673 0.00186828 3.51381399 0.00329025 5.27072144 0.00428772 C9.86390659 0.0080806 14.45705943 0.01788282 19.05023193 0.0289917 C23.74962934 0.03927574 28.44903205 0.04380023 33.1484375 0.04882812 C42.34636826 0.0595084 51.54427518 0.07654541 60.7421875 0.09765625 C59.96005802 3.78101814 58.80478689 5.30581052 56.1171875 7.97265625 C45.92588472 19.11539125 41.00668423 33.909031 41.46875 48.890625 C42.75438883 63.96933179 49.81803007 78.63835658 60.7421875 89.09765625 C60.4121875 90.08765625 60.0821875 91.07765625 59.7421875 92.09765625 C58.36181305 92.10312469 58.36181305 92.10312469 56.95355225 92.10870361 C48.18875341 92.14691181 39.42431434 92.20412743 30.65977097 92.28155899 C26.15614325 92.320707 21.65270151 92.35305262 17.14892578 92.36865234 C-10.33994542 92.17824296 -10.33994542 92.17824296 -37.2578125 97.09765625 C-38.26457031 97.38495605 -39.27132812 97.67225586 -40.30859375 97.96826172 C-42.63096601 98.69687509 -44.87370677 99.50688644 -47.1328125 100.41015625 C-47.90906982 100.71010498 -48.68532715 101.01005371 -49.48510742 101.3190918 C-83.7443292 114.8301187 -108.96462617 140.38145295 -124.05859375 173.80078125 C-137.23673381 204.46218136 -137.06318107 240.95104566 -125.3137207 271.98901367 C-119.68359333 285.91340794 -112.41166391 298.99073575 -102.2578125 310.09765625 C-101.56429687 310.92007812 -100.87078125 311.7425 -100.15625 312.58984375 C-81.46881192 334.40318057 -57.09115986 345.51828669 -30.2578125 354.09765625 C-30.2578125 355.08765625 -30.2578125 356.07765625 -30.2578125 357.09765625 C-31.76171875 358.5703125 -31.76171875 358.5703125 -33.8203125 360.16015625 C-43.89986079 368.6547579 -51.19431978 382.0216141 -52.46264648 395.23095703 C-53.21806398 412.26533332 -50.09128333 427.25297455 -38.4375 440.32421875 C-37.35855469 441.69707031 -37.35855469 441.69707031 -36.2578125 443.09765625 C-36.5878125 444.08765625 -36.9178125 445.07765625 -37.2578125 446.09765625 C-70.02550334 438.84195328 -100.58261549 428.54784424 -128.2578125 409.09765625 C-129.24394531 408.42347656 -130.23007813 407.74929688 -131.24609375 407.0546875 C-148.70323054 394.80184909 -165.72884363 379.37899262 -178.2578125 362.09765625 C-179.4334375 360.51984375 -179.4334375 360.51984375 -180.6328125 358.91015625 C-201.32141793 330.84156779 -215.09775327 299.05474318 -221.72167969 264.85400391 C-222.05603578 263.13502382 -222.40119063 261.4180661 -222.76269531 259.70458984 C-228.14598323 234.00858508 -226.70869643 205.62163656 -221.2578125 180.09765625 C-221.03818848 179.06721191 -220.81856445 178.03676758 -220.59228516 176.97509766 C-213.28872163 143.74465896 -199.51531032 111.14750664 -177.2578125 85.09765625 C-175.75598998 83.24496546 -174.2560611 81.39073841 -172.7578125 79.53515625 C-166.99586015 72.52791059 -161.30532332 65.74392498 -154.3515625 59.88671875 C-152.9244044 58.6672441 -151.52909771 57.40972773 -150.1640625 56.12109375 C-137.39783632 44.09810677 -122.58956634 34.50610727 -107.2578125 26.09765625 C-106.63293945 25.74896484 -106.00806641 25.40027344 -105.36425781 25.04101562 C-81.73453268 11.98412577 -54.92630381 4.52141089 -28.2578125 1.09765625 C-27.60387009 1.00797073 -26.94992767 0.91828522 -26.27616882 0.82588196 C-17.54622916 -0.21968453 -8.77618394 -0.02757054 0 0 Z " fill="#7D7D7D" transform="translate(225.2578125,355.90234375)"/>
<path d="M0 0 C19.42822644 2.16283519 38.2248538 8.00614933 56 16 C56.81533203 16.36577148 57.63066406 16.73154297 58.47070312 17.10839844 C75.96009721 25.09627669 92.3793894 35.49233478 107 48 C108.15762466 48.95331789 109.31658779 49.90501175 110.4765625 50.85546875 C111.6932553 51.86131791 112.90940453 52.86782496 114.125 53.875 C114.70701172 54.35219482 115.28902344 54.82938965 115.88867188 55.32104492 C117.29742825 56.50315126 118.65403724 57.74686226 120 59 C120 59.66 120 60.32 120 61 C120.66 61 121.32 61 122 61 C122 61.66 122 62.32 122 63 C122.57878906 63.24621094 123.15757812 63.49242187 123.75390625 63.74609375 C150.91141849 78.90707015 171.34686849 128.39450164 179.24267578 156.17333984 C183.55040317 172.25163375 187.14152362 187.79974286 187.203125 204.484375 C187.20882507 205.69458313 187.21452515 206.90479126 187.22039795 208.15167236 C187.22982715 210.71357354 187.23637365 213.27548673 187.24023438 215.83740234 C187.24986325 219.69521279 187.28087559 223.55247239 187.3125 227.41015625 C187.37256231 241.22671981 186.91276332 254.47039375 184 268 C183.77022461 269.09022461 183.54044922 270.18044922 183.30371094 271.30371094 C182.67771037 274.05571639 181.98885131 276.77632654 181.25 279.5 C180.99033447 280.46446045 180.73066895 281.4289209 180.46313477 282.42260742 C176.4929786 296.79829069 171.17204897 310.0636317 164.5625 323.4375 C163.7744397 325.03621948 163.7744397 325.03621948 162.97045898 326.66723633 C157.65793996 337.15292159 151.13167358 346.75274177 144.0625 356.125 C143.55307861 356.80240234 143.04365723 357.47980469 142.51879883 358.17773438 C138.89975374 362.93733731 135.09265645 367.4543554 131.015625 371.83203125 C129.09090389 373.90222547 127.26252513 376.02953109 125.4375 378.1875 C122.53995895 381.51134594 119.42861675 384.39883888 116.0625 387.2421875 C114.72334765 388.38351053 113.4086429 389.55439728 112.125 390.7578125 C68.38382577 431.59429938 10.27255675 446.46681245 -48 446 C-47.20601503 442.28795062 -45.90325817 440.48515306 -43.375 437.625 C-32.10226372 423.87874964 -28.91616406 409.44459744 -30 392 C-31.82176033 379.17113316 -37.72049383 368.85370248 -46.2421875 359.27734375 C-48 357 -48 357 -48 354 C-47.25540527 353.98018066 -46.51081055 353.96036133 -45.74365234 353.93994141 C-26.26127812 353.61196086 -26.26127812 353.61196086 -7 351 C-5.86949219 350.76796875 -4.73898437 350.5359375 -3.57421875 350.296875 C17.6759477 345.27535339 36.42250166 335.06049598 53 321 C53.70769531 320.41476562 54.41539062 319.82953125 55.14453125 319.2265625 C59.92029414 315.19044932 64.06421124 310.8549751 68 306 C68.69996094 305.13761719 69.39992188 304.27523438 70.12109375 303.38671875 C83.09783501 286.76659433 91.84636672 267.7096645 96 247 C96.20367188 246.10796875 96.40734375 245.2159375 96.6171875 244.296875 C100.23861764 225.74324661 98.8357316 206.15882777 94 188 C93.72712158 186.93797363 93.72712158 186.93797363 93.44873047 185.85449219 C85.0370792 153.81654963 63.30070072 125.44535757 34.9375 108.5625 C21.90591293 100.98002117 8.6874392 95.54738998 -6 92 C-5.43430954 88.39372329 -4.22698813 87.04115047 -1.5 84.6875 C9.93620039 73.64280918 15.25173639 59.41972723 16.05859375 43.74609375 C15.82643047 28.9031216 11.04433871 16.14244565 1.3203125 4.83984375 C0 3 0 3 0 0 Z " fill="#A2A2A2" transform="translate(613,2)"/>
</svg>
