<?xml version="1.0" encoding="UTF-8"?>
<svg version="1.1" xmlns="http://www.w3.org/2000/svg" width="800" height="803">
<path d="M0 0 C0.94101562 0.50917969 1.88203125 1.01835938 2.8515625 1.54296875 C14.46310395 8.381572 20.88402923 17.68399182 25.14453125 30.421875 C28.27304427 43.50734498 25.49959118 55.46021278 18.75 66.8125 C11.64166607 77.27212032 1.49306893 83.70607291 -10.84863281 86.59545898 C-14.66480446 87.31304823 -18.50774277 87.57446758 -22.375 87.875 C-58.88453464 91.1940486 -90.62703938 107.49013564 -114.78515625 135.23046875 C-125.35356201 148.44563575 -132.78545334 163.04598068 -138.3125 179 C-138.65812988 179.9751355 -138.65812988 179.9751355 -139.01074219 180.9699707 C-144.95599617 199.11783667 -144.47689793 217.76455627 -144.50611091 236.60920262 C-144.51559451 240.71181021 -144.54180452 244.81431318 -144.56611633 248.91685486 C-144.60951376 256.65819804 -144.63822399 264.3995206 -144.66143972 272.14094776 C-144.68863627 280.96590272 -144.73253782 289.79075102 -144.77772844 298.61562932 C-144.8701907 316.74369627 -144.94204575 334.87179148 -145 353 C-143.91386917 352.99111755 -142.82773834 352.98223511 -141.70869446 352.9730835 C-131.42621805 352.89166791 -121.14380784 352.8318772 -110.86108112 352.79275131 C-105.57578817 352.77195942 -100.29075737 352.74379668 -95.00561523 352.69824219 C-89.89625187 352.65448307 -84.7871392 352.63079989 -79.67760277 352.62049103 C-77.73733772 352.61315327 -75.79708493 352.59882574 -73.85692787 352.57707977 C-56.92905915 352.3950529 -43.82835645 354.10144875 -30.81640625 365.99609375 C-21.39207776 375.70546809 -17.70831108 387.16558582 -17.68310547 400.36352539 C-17.79510728 406.87829749 -19.04796919 412.15111654 -22 418 C-22.42410156 418.86109375 -22.84820313 419.7221875 -23.28515625 420.609375 C-29.24159948 431.55993916 -38.42906664 438.0889092 -50.08790588 442.04879761 C-54.44860327 443.26881045 -58.6459345 443.26625601 -63.14819336 443.22705078 C-64.48108902 443.22748886 -64.48108902 443.22748886 -65.84091187 443.22793579 C-68.75732428 443.22655033 -71.67347635 443.21102617 -74.58984375 443.1953125 C-76.62008016 443.19157958 -78.65031839 443.18873393 -80.68055725 443.18673706 C-86.0086876 443.17912256 -91.33670788 443.15949286 -96.66479492 443.1373291 C-102.10789501 443.11682358 -107.55101299 443.10772529 -112.99414062 443.09765625 C-123.66280861 443.07624488 -134.33139513 443.04213535 -145 443 C-144.99723462 444.05544714 -144.99723462 444.05544714 -144.99441338 445.13221645 C-144.94995106 462.37381662 -144.91700727 479.61540194 -144.89637566 496.85704708 C-144.88612931 505.19549068 -144.87219866 513.53389567 -144.84912109 521.87231445 C-144.82898101 529.15292359 -144.81623554 536.43350472 -144.81182301 543.71414095 C-144.80924992 547.55750381 -144.80334696 551.40078665 -144.78853989 555.24412346 C-144.62085322 600.55692896 -144.62085322 600.55692896 -149.0625 621.375 C-149.27310059 622.38353027 -149.48370117 623.39206055 -149.70068359 624.43115234 C-156.89780157 657.03104161 -171.18278052 687.87495421 -192 714 C-192.68191406 714.87398437 -193.36382812 715.74796875 -194.06640625 716.6484375 C-203.60688752 728.63114141 -213.87798552 739.61579562 -226 749 C-227.75140586 750.47750179 -229.50137622 751.95670667 -231.25 753.4375 C-259.04967005 776.00520967 -293.15680011 789.83447992 -328 797 C-329.33200439 797.27928345 -329.33200439 797.27928345 -330.69091797 797.56420898 C-338.8160989 799.10408983 -346.84264227 799.47085861 -355.08984375 799.53540039 C-356.60997791 799.55342762 -358.13000858 799.58754268 -359.64941406 799.63793945 C-374.08221289 800.1156097 -383.99628563 796.69555296 -395 787 C-403.49987429 777.13193669 -408.43508522 765.12009069 -408.27734375 752.09765625 C-407.18009513 739.84247091 -401.3837715 728.30140889 -392.45703125 719.88671875 C-382.94713675 712.58420835 -372.69769459 709.62989473 -360.90234375 708.66015625 C-327.67572241 705.81572905 -298.78418527 693.51991654 -275 670 C-274.06027344 669.15115234 -274.06027344 669.15115234 -273.1015625 668.28515625 C-258.9455899 655.22577308 -249.79650084 637.06347668 -243.625 619.125 C-243.30313721 618.205979 -242.98127441 617.28695801 -242.6496582 616.34008789 C-236.31836659 596.91419157 -236.52597425 576.98410899 -236.49388909 556.79379678 C-236.48438524 552.78062016 -236.45817427 548.76754975 -236.43388367 544.75444031 C-236.39054035 537.18670238 -236.36179737 529.61898543 -236.33856028 522.05116194 C-236.31133406 513.4220445 -236.26743484 504.79303563 -236.22227156 496.16399634 C-236.12988715 478.44272191 -236.05799717 460.72141871 -236 443 C-237.14887695 443.02094727 -238.29775391 443.04189453 -239.48144531 443.06347656 C-243.79772169 443.13659899 -248.11394487 443.18205886 -252.43066406 443.21972656 C-254.28883105 443.23967917 -256.14693659 443.26685134 -258.00488281 443.30175781 C-275.22711341 443.61691166 -288.07841739 441.3193815 -301.1875 429.375 C-310.47038556 419.70301146 -313.53527804 407.66873055 -313.3125 394.6640625 C-312.16530357 381.21318439 -305.95608363 371.2013231 -296.4296875 362.01171875 C-287.95671015 354.99631146 -278.29039794 352.73361488 -267.56640625 352.5859375 C-266.2495005 352.55688828 -266.2495005 352.55688828 -264.9059906 352.5272522 C-262.1249233 352.46787262 -259.34381367 352.42123883 -256.5625 352.375 C-254.66730049 352.33678184 -252.77211764 352.29772792 -250.87695312 352.2578125 C-246.25143871 352.16220571 -241.62584308 352.07802245 -237 352 C-236.99668985 351.27206647 -236.99337971 350.54413294 -236.98996925 349.79414082 C-236.90833586 331.98639445 -236.81611613 314.17873074 -236.71247292 296.37109852 C-236.66259815 287.75905398 -236.61615507 279.14701778 -236.578125 270.53491211 C-236.54492404 263.0184378 -236.50494388 255.50203344 -236.45720994 247.98563689 C-236.43222041 244.01500846 -236.41036224 240.04442475 -236.39665604 236.07374001 C-236.25197445 195.77062113 -232.54147141 154.60686135 -212.03759766 118.82958984 C-210.86243315 116.75742917 -209.7492898 114.65718338 -208.63671875 112.55078125 C-198.58509991 93.70991328 -185.615872 77.50894317 -171 62 C-170.31035156 61.2678125 -169.62070312 60.535625 -168.91015625 59.78125 C-164.48226443 55.21753328 -159.72205849 51.17707539 -154.7578125 47.20703125 C-153.06643149 45.85344729 -151.39040028 44.48004729 -149.7421875 43.07421875 C-137.54639471 32.81190531 -123.43243015 24.64854869 -109.01123047 17.93994141 C-106.94589576 16.97471458 -104.89755933 15.97798966 -102.84765625 14.98046875 C-82.63488235 5.35304115 -60.96721542 0.71093028 -39 -3 C-37.81019531 -3.20238281 -36.62039063 -3.40476563 -35.39453125 -3.61328125 C-23.66118036 -4.94999211 -10.61187946 -5.82107951 0 0 Z " fill="#050505" transform="translate(591,4)"/>
<path d="M0 0 C1.75690673 0.00186828 3.51381399 0.00329025 5.27072144 0.00428772 C9.86390659 0.0080806 14.45705943 0.01788282 19.05023193 0.0289917 C23.74962934 0.03927574 28.44903205 0.04380023 33.1484375 0.04882812 C42.34636826 0.0595084 51.54427518 0.07654541 60.7421875 0.09765625 C59.31291696 3.08539692 57.8848119 5.11587139 55.5546875 7.47265625 C45.46137 18.80920075 41.04312129 33.70548266 41.46875 48.66796875 C42.67753034 63.82952784 49.76145776 78.5841916 60.7421875 89.09765625 C60.4121875 89.75765625 60.0821875 90.41765625 59.7421875 91.09765625 C58.36181305 91.10312469 58.36181305 91.10312469 56.95355225 91.10870361 C48.18875341 91.14691181 39.42431434 91.20412743 30.65977097 91.28155899 C26.15614325 91.320707 21.65270151 91.35305262 17.14892578 91.36865234 C-10.33994542 91.17824296 -10.33994542 91.17824296 -37.2578125 96.09765625 C-38.26457031 96.38495605 -39.27132812 96.67225586 -40.30859375 96.96826172 C-42.63096601 97.69687509 -44.87370677 98.50688644 -47.1328125 99.41015625 C-47.90906982 99.71010498 -48.68532715 100.01005371 -49.48510742 100.3190918 C-83.7443292 113.8301187 -108.96462617 139.38145295 -124.05859375 172.80078125 C-127.29374221 180.32795739 -129.6015354 188.07973035 -131.2578125 196.09765625 C-131.44037598 196.9786499 -131.62293945 197.85964355 -131.81103516 198.76733398 C-133.32999017 206.86730021 -133.64458031 214.80587761 -133.6328125 223.03515625 C-133.63149826 224.04987 -133.63149826 224.04987 -133.63015747 225.08508301 C-133.49866288 256.03772551 -123.40595238 286.96449241 -102.2578125 310.09765625 C-101.56429687 310.92007812 -100.87078125 311.7425 -100.15625 312.58984375 C-81.46881192 334.40318057 -57.09115986 345.51828669 -30.2578125 354.09765625 C-30.2578125 354.75765625 -30.2578125 355.41765625 -30.2578125 356.09765625 C-31.40357846 357.1452137 -32.6017481 358.13575342 -33.8203125 359.09765625 C-43.8754411 367.69603477 -51.24113439 381.04385685 -52.46264648 394.32470703 C-53.27170856 413.62279323 -49.06275287 428.32958914 -36.2578125 443.09765625 C-36.5878125 443.75765625 -36.9178125 444.41765625 -37.2578125 445.09765625 C-70.02550334 437.84195328 -100.58261549 427.54784424 -128.2578125 408.09765625 C-129.24394531 407.42347656 -130.23007813 406.74929688 -131.24609375 406.0546875 C-148.70323054 393.80184909 -165.72884363 378.37899262 -178.2578125 361.09765625 C-179.4334375 359.51984375 -179.4334375 359.51984375 -180.6328125 357.91015625 C-201.32030497 329.84307777 -215.09702423 298.05718109 -221.72167969 263.85839844 C-222.05680035 262.13274066 -222.402132 260.40899821 -222.76269531 258.68847656 C-233.78493034 205.63113404 -218.48146793 146.29685913 -189.53515625 101.40429688 C-185.75869506 95.69030403 -181.70793145 90.30601047 -177.2578125 85.09765625 C-175.75598998 83.24496546 -174.2560611 81.39073841 -172.7578125 79.53515625 C-166.99586015 72.52791059 -161.30532332 65.74392498 -154.3515625 59.88671875 C-152.9244044 58.6672441 -151.52909771 57.40972773 -150.1640625 56.12109375 C-137.39783632 44.09810677 -122.58956634 34.50610727 -107.2578125 26.09765625 C-106.63293945 25.74896484 -106.00806641 25.40027344 -105.36425781 25.04101562 C-81.73453268 11.98412577 -54.92630381 4.52141089 -28.2578125 1.09765625 C-27.60387009 1.00797073 -26.94992767 0.91828522 -26.27616882 0.82588196 C-17.54622916 -0.21968453 -8.77618394 -0.02757054 0 0 Z " fill="#050505" transform="translate(225.2578125,356.90234375)"/>
<path d="M0 0 C19.42822644 2.16283519 38.2248538 8.00614933 56 16 C56.81533203 16.36577148 57.63066406 16.73154297 58.47070312 17.10839844 C75.96009721 25.09627669 92.3793894 35.49233478 107 48 C108.15762466 48.95331789 109.31658779 49.90501175 110.4765625 50.85546875 C111.6932553 51.86131791 112.90940453 52.86782496 114.125 53.875 C114.70701172 54.35219482 115.28902344 54.82938965 115.88867188 55.32104492 C117.29742825 56.50315126 118.65403724 57.74686226 120 59 C120 59.66 120 60.32 120 61 C120.66 61 121.32 61 122 61 C122 61.66 122 62.32 122 63 C122.57878906 63.24621094 123.15757812 63.49242187 123.75390625 63.74609375 C150.91141849 78.90707015 171.34686849 128.39450164 179.24267578 156.17333984 C183.52768823 172.16685183 187.14065583 187.66747771 187.203125 204.265625 C187.20882507 205.45363708 187.21452515 206.64164917 187.22039795 207.86566162 C187.22982632 210.38048418 187.23637331 212.89531898 187.24023438 215.41015625 C187.2498615 219.19554278 187.28087383 222.9803675 187.3125 226.765625 C187.37317051 240.46498004 186.87600264 253.58412587 184 267 C183.77022461 268.09086914 183.54044922 269.18173828 183.30371094 270.30566406 C182.67746241 273.05691497 181.98867395 275.77698038 181.25 278.5 C180.99033447 279.46446045 180.73066895 280.4289209 180.46313477 281.42260742 C176.4929786 295.79829069 171.17204897 309.0636317 164.5625 322.4375 C163.7744397 324.03621948 163.7744397 324.03621948 162.97045898 325.66723633 C157.65793996 336.15292159 151.13167358 345.75274177 144.0625 355.125 C143.55307861 355.80240234 143.04365723 356.47980469 142.51879883 357.17773438 C138.89975374 361.93733731 135.09265645 366.4543554 131.015625 370.83203125 C129.09090389 372.90222547 127.26252513 375.02953109 125.4375 377.1875 C122.53995895 380.51134594 119.42861675 383.39883888 116.0625 386.2421875 C114.72334765 387.38351053 113.4086429 388.55439728 112.125 389.7578125 C68.38382577 430.59429938 10.27255675 445.46681245 -48 445 C-46.2878937 441.41111591 -44.16125835 438.55984038 -41.6875 435.4375 C-31.28531109 421.87486235 -28.77418955 407.76083399 -30 391 C-31.78793698 378.15389819 -37.78351018 367.81085475 -46.2421875 358.1796875 C-48 356 -48 356 -48 354 C-47.25540527 353.98018066 -46.51081055 353.96036133 -45.74365234 353.93994141 C-26.26127812 353.61196086 -26.26127812 353.61196086 -7 351 C-5.86949219 350.76796875 -4.73898437 350.5359375 -3.57421875 350.296875 C17.6759477 345.27535339 36.42250166 335.06049598 53 321 C53.70769531 320.41476562 54.41539062 319.82953125 55.14453125 319.2265625 C59.92029414 315.19044932 64.06421124 310.8549751 68 306 C68.69996094 305.13761719 69.39992188 304.27523438 70.12109375 303.38671875 C92.11194207 275.22166345 101.57172942 239.58591494 97.67919922 204.07324219 C96.81989307 198.28676019 95.51465202 192.64665262 94 187 C93.81808105 186.29343262 93.63616211 185.58686523 93.44873047 184.85888672 C85.03846302 152.81869893 63.30248817 124.44642153 34.9375 107.5625 C21.90591293 99.98002117 8.6874392 94.54738998 -6 91 C-4.69023329 88.04511568 -3.37667093 86.28068924 -0.9375 84.1875 C10.46089177 73.07586023 15.31385329 58.56076296 16.05859375 42.96875 C15.83720676 27.9734713 11.04965356 15.24049967 1.3203125 3.7421875 C0 2 0 2 0 0 Z " fill="#010101" transform="translate(613,3)"/>
<path d="M0 0 C19.42822644 2.16283519 38.2248538 8.00614933 56 16 C56.81533203 16.36577148 57.63066406 16.73154297 58.47070312 17.10839844 C75.96009721 25.09627669 92.3793894 35.49233478 107 48 C108.15762466 48.95331789 109.31658779 49.90501175 110.4765625 50.85546875 C111.6932553 51.86131791 112.90940453 52.86782496 114.125 53.875 C114.70701172 54.35219482 115.28902344 54.82938965 115.88867188 55.32104492 C117.29742825 56.50315126 118.65403724 57.74686226 120 59 C120 59.66 120 60.32 120 61 C120.66 61 121.32 61 122 61 C122 61.66 122 62.32 122 63 C122.57878906 63.24621094 123.15757812 63.49242187 123.75390625 63.74609375 C150.91141849 78.90707015 171.34686849 128.39450164 179.24267578 156.17333984 C183.52768823 172.16685183 187.14065583 187.66747771 187.203125 204.265625 C187.20882507 205.45363708 187.21452515 206.64164917 187.22039795 207.86566162 C187.22982632 210.38048418 187.23637331 212.89531898 187.24023438 215.41015625 C187.2498615 219.19554278 187.28087383 222.9803675 187.3125 226.765625 C187.37317051 240.46498004 186.87600264 253.58412587 184 267 C183.77022461 268.09086914 183.54044922 269.18173828 183.30371094 270.30566406 C182.67746241 273.05691497 181.98867395 275.77698038 181.25 278.5 C180.99033447 279.46446045 180.73066895 280.4289209 180.46313477 281.42260742 C176.4929786 295.79829069 171.17204897 309.0636317 164.5625 322.4375 C163.7744397 324.03621948 163.7744397 324.03621948 162.97045898 325.66723633 C157.65793996 336.15292159 151.13167358 345.75274177 144.0625 355.125 C143.55307861 355.80240234 143.04365723 356.47980469 142.51879883 357.17773438 C138.89975374 361.93733731 135.09265645 366.4543554 131.015625 370.83203125 C129.09090389 372.90222547 127.26252513 375.02953109 125.4375 377.1875 C122.53995895 380.51134594 119.42861675 383.39883888 116.0625 386.2421875 C114.72334765 387.38351053 113.4086429 388.55439728 112.125 389.7578125 C68.38382577 430.59429938 10.27255675 445.46681245 -48 445 C-46.25 441.125 -46.25 441.125 -44 440 C-44 440.99 -44 441.98 -44 443 C2.36110109 442.75961609 49.80520032 432.7373655 88 405 C88.95261719 404.319375 89.90523437 403.63875 90.88671875 402.9375 C93.60677079 400.97817193 96.30910591 398.99916708 99 397 C99.6077124 396.56002686 100.2154248 396.12005371 100.84155273 395.66674805 C105.72307595 392.09067279 110.17737082 388.22768539 114.5625 384.0625 C115.18318359 383.48048828 115.80386719 382.89847656 116.44335938 382.29882812 C125.15631607 374.41644085 125.15631607 374.41644085 132 365 C133.5625 363.1875 133.5625 363.1875 135 362 C135.66 362 136.32 362 137 362 C137.2475 361.278125 137.495 360.55625 137.75 359.8125 C139.12618066 356.71609352 140.85663795 354.61923485 143 352 C147.70063443 345.89107833 151.88167841 339.75238738 155.4453125 332.9140625 C156.53120573 330.87869478 157.67735914 328.87484695 158.8671875 326.8984375 C169.81191834 308.71400143 177.6050604 287.13567695 181.5625 266.3125 C181.81128906 265.02988281 182.06007813 263.74726563 182.31640625 262.42578125 C183.96387041 252.62864241 184.15830207 242.73598154 184.16796875 232.82421875 C184.17129715 231.61482132 184.17462555 230.40542389 184.17805481 229.15937805 C184.18308181 226.62407813 184.18546446 224.08877169 184.18530273 221.5534668 C184.18750385 217.68071738 184.20574445 213.80824662 184.22460938 209.93554688 C184.22754129 207.46093847 184.22952744 204.98632872 184.23046875 202.51171875 C184.24124702 200.78498177 184.24124702 200.78498177 184.25224304 199.02336121 C184.23584855 193.25821447 183.90524482 188.44604647 182 183 C181.69488455 181.06760214 181.42407332 179.12948095 181.1875 177.1875 C177.86913908 154.63301563 168.70615413 133.86049606 158.0703125 113.91210938 C157.54695312 112.92146484 157.02359375 111.93082031 156.484375 110.91015625 C156.00709961 110.01433838 155.52982422 109.11852051 155.03808594 108.19555664 C154 106 154 106 154 104 C153.34 104 152.68 104 152 104 C150.703125 102.09375 150.703125 102.09375 149.25 99.5 C145.88289407 93.70922846 142.06835954 88.54048509 137.84375 83.3515625 C137.1115625 82.45179687 136.379375 81.55203125 135.625 80.625 C134.93664062 79.79226562 134.24828125 78.95953125 133.5390625 78.1015625 C132 76 132 76 132 74 C131.01 73.67 130.02 73.34 129 73 C129 72.34 129 71.68 129 71 C128.34 71 127.68 71 127 71 C126.443125 70.29875 125.88625 69.5975 125.3125 68.875 C123.45268287 66.56279492 121.8780478 64.97518495 119.625 63.125 C117.10540071 61.04055539 115.00159629 58.91042537 112.9375 56.375 C110.28895576 53.1842341 107.5209507 51.23444948 104 49 C102.44827262 47.76251132 100.90772512 46.51094798 99.375 45.25 C90.53647639 38.12087601 81.08486357 32.19169296 71 27 C70.40171387 26.690625 69.80342773 26.38125 69.18701172 26.0625 C59.95045206 21.30363857 50.63494762 16.90320871 41 13 C40.12601563 12.64292969 39.25203125 12.28585937 38.3515625 11.91796875 C32.47182417 9.64748518 26.44780909 7.9174254 20.375 6.25 C19.58714111 6.02691162 18.79928223 5.80382324 17.98754883 5.57397461 C12.51355029 4.12105964 7.66226277 3.79656541 2 4 C1.34 2.68 0.68 1.36 0 0 Z " fill="#FFFFFF" transform="translate(613,3)"/>
<path d="M0 0 C1.34191406 -0.0309375 1.34191406 -0.0309375 2.7109375 -0.0625 C8.88231911 -0.09838013 13.90787033 0.92954884 19.625 3.25 C16.02150955 4.45116348 14.2162209 3.93978578 10.5 3.25 C-3.60294008 1.11933999 -17.52834779 3.33553384 -31.375 6.25 C-32.59727295 6.50523437 -32.59727295 6.50523437 -33.84423828 6.765625 C-74.2254435 15.37208548 -113.00598246 34.14828643 -142.0390625 63.9140625 C-144.1010365 65.9760365 -146.20848612 67.87339938 -148.4375 69.75 C-159.66254028 79.41976361 -168.44933178 91.82157426 -176.375 104.25 C-176.98988281 105.20132813 -177.60476563 106.15265625 -178.23828125 107.1328125 C-195.72708832 134.77531533 -208.43312099 167.82910541 -210.1640625 200.67578125 C-210.375 203.25 -210.375 203.25 -211.375 206.25 C-211.49229714 208.19289723 -211.55180739 210.13946749 -211.58032227 212.08569336 C-211.60026749 213.3043811 -211.62021271 214.52306885 -211.64076233 215.77868652 C-211.65784525 217.13240307 -211.67471944 218.48612226 -211.69140625 219.83984375 C-211.71210945 221.26558852 -211.73310781 222.69132903 -211.75437927 224.11706543 C-211.81058609 227.99715767 -211.85975347 231.87731094 -211.90722656 235.75751877 C-211.93744121 238.18278106 -211.96975372 240.60800683 -212.00268555 243.03323364 C-212.26276538 262.33473082 -212.4116544 281.63419011 -212.40234375 300.9375 C-212.40195162 301.81512056 -212.40155949 302.69274113 -212.40115547 303.59695625 C-212.3959512 312.15977209 -212.38048429 320.72249945 -212.34722996 329.28525352 C-212.3355541 332.44652664 -212.32736368 335.60780382 -212.31962776 338.76908875 C-212.31265932 340.94631508 -212.3000502 343.12346079 -212.28721619 345.30065918 C-212.28395828 346.58903687 -212.28070038 347.87741455 -212.27734375 349.20483398 C-212.27210693 350.33034164 -212.26687012 351.4558493 -212.26147461 352.61546326 C-212.375 355.25 -212.375 355.25 -213.375 357.25 C-214.035 356.92 -214.695 356.59 -215.375 356.25 C-215.29067889 337.70696345 -215.19539559 319.16401306 -215.08747292 300.62109852 C-215.03759815 292.00905398 -214.99115507 283.39701778 -214.953125 274.78491211 C-214.91992404 267.2684378 -214.87994388 259.75203344 -214.83220994 252.23563689 C-214.80722041 248.26500846 -214.78536224 244.29442475 -214.77165604 240.32374001 C-214.62697445 200.02062113 -210.91647141 158.85686135 -190.41259766 123.07958984 C-189.23743315 121.00742917 -188.1242898 118.90718338 -187.01171875 116.80078125 C-176.96009991 97.95991328 -163.990872 81.75894317 -149.375 66.25 C-148.68535156 65.5178125 -147.99570312 64.785625 -147.28515625 64.03125 C-142.85726443 59.46753328 -138.09705849 55.42707539 -133.1328125 51.45703125 C-131.44143149 50.10344729 -129.76540028 48.73004729 -128.1171875 47.32421875 C-115.92139471 37.06190531 -101.80743015 28.89854869 -87.38623047 22.18994141 C-85.32089576 21.22471458 -83.27255933 20.22798966 -81.22265625 19.23046875 C-61.00895697 9.60260039 -39.3424915 4.96374951 -17.375 1.25 C-16.18777344 1.04632813 -15.00054688 0.84265625 -13.77734375 0.6328125 C-9.17771637 0.11528841 -4.62553579 0.02643163 0 0 Z " fill="#FFFFFF" transform="translate(569.375,-0.25)"/>
<path d="M0 0 C0 3.99904969 -1.72586967 5.80200422 -4 9 C0.24205964 10.60854978 4.48870956 12.17627787 8.77734375 13.65625 C20.33505732 17.73557422 30.23423185 22.71012735 40.24365234 29.77392578 C42.63632286 31.44420537 45.10070093 32.9965967 47.5625 34.5625 C49.62890625 35.87890625 49.62890625 35.87890625 51 37 C51 37.66 51 38.32 51 39 C51.66 39 52.32 39 53 39 C53 39.66 53 40.32 53 41 C54.485 41.495 54.485 41.495 56 42 C56 42.66 56 43.32 56 44 C57.485 44.495 57.485 44.495 59 45 C59 45.66 59 46.32 59 47 C59.66 47 60.32 47 61 47 C62.625 48.375 62.625 48.375 64 50 C64 50.66 64 51.32 64 52 C65.485 52.495 65.485 52.495 67 53 C68.23925781 54.3918457 68.23925781 54.3918457 69.453125 56.17578125 C69.90397461 56.83247803 70.35482422 57.4891748 70.81933594 58.16577148 C71.52751465 59.2284021 71.52751465 59.2284021 72.25 60.3125 C72.74016602 61.04090088 73.23033203 61.76930176 73.73535156 62.51977539 C94.28577888 93.30821184 103.30625829 129.1178876 97.0625 166.0625 C93.28316822 183.25579809 85.93164213 199.88734534 77 215 C76.56880859 215.73992187 76.13761719 216.47984375 75.69335938 217.2421875 C75.03303711 218.34433594 75.03303711 218.34433594 74.359375 219.46875 C73.95686523 220.14357422 73.55435547 220.81839844 73.13964844 221.51367188 C72.76356445 222.00416016 72.38748047 222.49464844 72 223 C71.34 223 70.68 223 70 223 C69.67 223.99 69.34 224.98 69 226 C68.34 226 67.68 226 67 226 C66.65388672 226.81984375 66.65388672 226.81984375 66.30078125 227.65625 C64.6277493 230.67072198 62.51550967 232.9590839 60.1875 235.5 C59.33542969 236.4384375 58.48335937 237.376875 57.60546875 238.34375 C55.18787764 240.80846057 52.80090717 242.98372726 50 245 C49.34 245 48.68 245 48 245 C47.67 245.99 47.34 246.98 47 248 C44.88555853 249.66628816 42.80938221 251.15716183 40.5625 252.625 C39.56029419 253.28097168 39.56029419 253.28097168 38.5378418 253.95019531 C10.86111593 271.66687641 -17.65157366 276.31965313 -50 277 C-50.495 275.515 -50.495 275.515 -51 274 C-50.25540527 273.98018066 -49.51081055 273.96036133 -48.74365234 273.93994141 C-29.26127812 273.61196086 -29.26127812 273.61196086 -10 271 C-8.86949219 270.76796875 -7.73898437 270.5359375 -6.57421875 270.296875 C14.6759477 265.27535339 33.42250166 255.06049598 50 241 C50.70769531 240.41476562 51.41539062 239.82953125 52.14453125 239.2265625 C56.92029414 235.19044932 61.06421124 230.8549751 65 226 C65.69996094 225.13761719 66.39992188 224.27523437 67.12109375 223.38671875 C89.11194207 195.22166345 98.57172942 159.58591494 94.67919922 124.07324219 C93.81989307 118.28676019 92.51465202 112.64665262 91 107 C90.81808105 106.29343262 90.63616211 105.58686523 90.44873047 104.85888672 C82.03846302 72.81869893 60.30248817 44.44642153 31.9375 27.5625 C18.90591293 19.98002117 5.6874392 14.54738998 -9 11 C-7.59155282 7.78475695 -5.89655214 5.67816132 -3.375 3.25 C-2.74335937 2.63640625 -2.11171875 2.0228125 -1.4609375 1.390625 C-0.73777344 0.70226562 -0.73777344 0.70226562 0 0 Z " fill="#FFFFFF" transform="translate(616,83)"/>
<path d="M0 0 C0.99 0.495 0.99 0.495 2 1 C1.9861273 20.45578635 1.94358145 39.91131512 1.86790943 59.36696148 C1.83341649 68.40278956 1.80792469 77.43846757 1.80444336 86.47436523 C1.80138143 94.36007822 1.78059538 102.24552288 1.73947543 110.13113242 C1.71834352 114.29749304 1.70544091 118.46347414 1.71384621 122.62988853 C1.74351341 140.2665382 1.59068707 157.05088184 -4 174 C-4.40957443 175.24194626 -4.81914886 176.48389252 -5.24113464 177.76347351 C-9.44673556 189.73230236 -15.44046298 201.79726821 -23 212 C-24.09248047 213.50626953 -24.09248047 213.50626953 -25.20703125 215.04296875 C-45.82926124 243.00362799 -76.76839878 260.66399052 -110.96484375 266.47265625 C-116.96407888 267.35965168 -122.9489231 267.25527981 -129 267 C-129 266.67 -129 266.34 -129 266 C-127.34291016 265.88785156 -127.34291016 265.88785156 -125.65234375 265.7734375 C-92.19358245 263.10958149 -62.9156637 250.6499341 -39 227 C-38.37351562 226.43410156 -37.74703125 225.86820313 -37.1015625 225.28515625 C-22.9455899 212.22577308 -13.79650084 194.06347668 -7.625 176.125 C-7.30313721 175.205979 -6.98127441 174.28695801 -6.6496582 173.34008789 C-0.31836659 153.91419157 -0.52597425 133.98410899 -0.49388909 113.79379678 C-0.48438524 109.78062016 -0.45817427 105.76754975 -0.43388367 101.75444031 C-0.39054035 94.18670238 -0.36179737 86.61898543 -0.33856028 79.05116194 C-0.31133406 70.4220445 -0.26743484 61.79303563 -0.22227156 53.16399634 C-0.12988715 35.44272191 -0.05799717 17.72141871 0 0 Z " fill="#FFFFFF" transform="translate(355,447)"/>
<path d="M0 0 C1.75690673 0.00186828 3.51381399 0.00329025 5.27072144 0.00428772 C9.86390659 0.0080806 14.45705943 0.01788282 19.05023193 0.0289917 C23.74962934 0.03927574 28.44903205 0.04380023 33.1484375 0.04882812 C42.34636826 0.0595084 51.54427518 0.07654541 60.7421875 0.09765625 C59.21646094 3.42401507 57.80874246 5.05328627 54.7421875 7.09765625 C55.0721875 6.45828125 55.4021875 5.81890625 55.7421875 5.16015625 C56.81489975 3.32971058 56.81489975 3.32971058 56.7421875 2.09765625 C49.14200469 2.05041888 41.54183783 2.01533963 33.94153976 1.99403191 C30.40888888 1.98378325 26.87634137 1.96999193 23.34375 1.94677734 C8.63410321 1.85284228 -5.99474074 1.95366006 -20.67578125 2.9921875 C-21.80038757 3.07173676 -22.9249939 3.15128601 -24.0836792 3.23324585 C-32.91540349 3.93121021 -41.44030989 5.35503148 -50.0234375 7.53125 C-52.34610829 8.12003892 -54.67584464 8.67194723 -57.0078125 9.22265625 C-73.36463134 13.19156583 -88.53930503 19.31175565 -103.41894531 27.13330078 C-105.16798154 28.05054628 -106.92750322 28.94771519 -108.6875 29.84375 C-119.20264831 35.30305362 -128.76068547 41.93464683 -138.01586914 49.32641602 C-139.42249151 50.43771355 -140.84192362 51.53318203 -142.27905273 52.60473633 C-148.5501635 57.30825168 -154.05824167 62.59853872 -159.5703125 68.16015625 C-160.45009766 69.03220703 -161.32988281 69.90425781 -162.23632812 70.80273438 C-166.43965236 75.01882497 -170.16589713 79.01095677 -173.2578125 84.09765625 C-174.18991478 85.24448366 -175.14511113 86.3733502 -176.1328125 87.47265625 C-178.94939844 90.67527174 -181.47397632 94.03306716 -183.9609375 97.49609375 C-185.2578125 99.09765625 -185.2578125 99.09765625 -187.2578125 100.09765625 C-185.92146391 96.2967854 -184.25921666 93.57005966 -181.6953125 90.47265625 C-180.98246094 89.60511719 -180.26960938 88.73757813 -179.53515625 87.84375 C-178.78363281 86.93753906 -178.03210938 86.03132813 -177.2578125 85.09765625 C-176.51660156 84.18113281 -175.77539062 83.26460938 -175.01171875 82.3203125 C-168.56740361 74.35705999 -162.20748486 66.50382258 -154.3515625 59.88671875 C-152.9244044 58.6672441 -151.52909771 57.40972773 -150.1640625 56.12109375 C-137.39783632 44.09810677 -122.58956634 34.50610727 -107.2578125 26.09765625 C-106.63293945 25.74896484 -106.00806641 25.40027344 -105.36425781 25.04101562 C-81.73453268 11.98412577 -54.92630381 4.52141089 -28.2578125 1.09765625 C-27.60387009 1.00797073 -26.94992767 0.91828522 -26.27616882 0.82588196 C-17.54622916 -0.21968453 -8.77618394 -0.02757054 0 0 Z " fill="#FFFFFF" transform="translate(225.2578125,356.90234375)"/>
<path d="M0 0 C-1.67335996 1.67335996 -3.71387909 1.11962895 -5.94747925 1.12442017 C-6.6545401 1.12082489 -7.36160095 1.11722961 -8.09008789 1.11352539 C-8.83150528 1.11367142 -9.57292267 1.11381744 -10.33680725 1.1139679 C-12.79878621 1.11326865 -15.26069043 1.10547574 -17.72265625 1.09765625 C-19.42516539 1.09579211 -21.12767507 1.09436819 -22.83018494 1.09336853 C-27.31993073 1.08954302 -31.80964438 1.07971247 -36.29937744 1.06866455 C-40.87731491 1.05845113 -45.45525756 1.05387106 -50.03320312 1.04882812 C-59.02214957 1.03809022 -68.01107212 1.02101341 -77 1 C-77 0.67 -77 0.34 -77 0 C-72.97502612 -0.94573874 -69.1681004 -1.16440377 -65.03833008 -1.23706055 C-64.01792885 -1.25672882 -64.01792885 -1.25672882 -62.97691345 -1.27679443 C-60.74117511 -1.31838377 -58.50540143 -1.35301175 -56.26953125 -1.38671875 C-54.71204954 -1.41238876 -53.1545697 -1.43817269 -51.59709167 -1.46406555 C-48.33991665 -1.51691832 -45.08270844 -1.56586693 -41.82543945 -1.61254883 C-37.64534468 -1.67313139 -33.46561105 -1.74734163 -29.28580189 -1.82492352 C-26.07322739 -1.88240256 -22.86056322 -1.93075248 -19.64780235 -1.976511 C-18.10593013 -1.9999528 -16.56410478 -2.02671722 -15.0223484 -2.05682945 C-12.87274105 -2.09783546 -10.72333086 -2.1261049 -8.57348633 -2.15112305 C-6.73745598 -2.17990791 -6.73745598 -2.17990791 -4.86433411 -2.20927429 C-2 -2 -2 -2 0 0 Z " fill="#FFFFFF" transform="translate(286,447)"/>
<path d="M0 0 C4.81035973 4.3730543 8.59926143 9.46277438 12 15 C12 15.66 12 16.32 12 17 C12.66 17 13.32 17 14 17 C15.41015625 18.6171875 15.41015625 18.6171875 17.0625 20.875 C21.07499225 26.19959414 25.48698143 31.09810455 30 36 C29.67 36.66 29.34 37.32 29 38 C20.55404008 29.90595507 13.47758936 21.13623543 6.625 11.6875 C6.19582275 11.10073486 5.76664551 10.51396973 5.32446289 9.90942383 C3.04631522 6.72347365 1.26737676 3.71160338 0 0 Z " fill="#FFFFFF" transform="translate(35,699)"/>
<path d="M0 0 C0.33 0.66 0.66 1.32 1 2 C-4.72448127 13.21462705 -12.8195439 23.5001155 -21 33 C-21 29.56595366 -20.56175927 29.0881659 -18.5 26.5 C-17.9534375 25.79617188 -17.406875 25.09234375 -16.84375 24.3671875 C-16.2353125 23.58601562 -15.626875 22.80484375 -15 22 C-10.35056939 15.81920931 -6.0055209 9.59536854 -2.12890625 2.8984375 C-1 1 -1 1 0 0 Z " fill="#FFFFFF" transform="translate(415,691)"/>
<path d="M0 0 C7.04482078 2.32868424 14.05699541 4.74330818 21.0625 7.1875 C22.11888672 7.55552734 23.17527344 7.92355469 24.26367188 8.30273438 C26.84263518 9.2012872 29.42140653 10.10038653 32 11 C32 11.66 32 12.32 32 13 C31.01 13.33 30.02 13.66 29 14 C29 13.34 29 12.68 29 12 C28.03513672 11.76216797 28.03513672 11.76216797 27.05078125 11.51953125 C17.74586009 9.11697671 8.07187502 6.361393 0 1 C0 0.67 0 0.34 0 0 Z " fill="#FFFFFF" transform="translate(163,700)"/>
<path d="M0 0 C3.02197474 1.36756031 5.24646592 2.95116479 7.6875 5.1875 C10.60075159 7.80181719 13.57353585 10.25319731 16.6875 12.625 C20.07025711 15.21766678 23.08380772 17.89566628 26 21 C16.05680929 17.59039601 7.4307826 8.22123775 0 1 C0 0.67 0 0.34 0 0 Z " fill="#FFFFFF" transform="translate(70,742)"/>
<path d="M0 0 C0 3 0 3 -1.57421875 4.71875 C-9.37558411 11.29439252 -9.37558411 11.29439252 -13 13 C-13.66 12.67 -14.32 12.34 -15 12 C-14.41992188 11.55269531 -13.83984375 11.10539062 -13.2421875 10.64453125 C-8.7576236 7.1738044 -4.32898614 3.66298828 0 0 Z " fill="#FFFFFF" transform="translate(606,73)"/>
</svg>
